<svg width="40" height="40" viewBox="0 0 40 40" fill="none" xmlns="http://www.w3.org/2000/svg">
<path d="M8 0.75H24C24.0911 0.75 24.1793 0.777281 24.2539 0.827148L24.3232 0.883789L35.1162 11.6768C35.2019 11.7625 35.25 11.8788 35.25 12V36C35.25 37.7949 33.7949 39.25 32 39.25H8C6.20507 39.25 4.75 37.7949 4.75 36V4C4.75 2.20507 6.20508 0.75 8 0.75Z" fill="white" stroke="#D0D5DD" stroke-width="1.5"/>
<path d="M24 0.5V8C24 10.2091 25.7909 12 28 12H35.5" stroke="#D0D5DD" stroke-width="1.5"/>
<path d="M25.7088 25.3438C24.586 25.3438 23.1808 25.5396 22.7211 25.6085C20.8184 23.6216 20.277 22.4922 20.1553 22.191C20.3203 21.7671 20.8944 20.1564 20.976 18.0878C21.0162 17.0521 20.7975 16.2782 20.3256 15.7876C19.8545 15.2979 19.2843 15.2598 19.1208 15.2598C18.5475 15.2598 17.5857 15.5497 17.5857 17.4911C17.5857 19.1756 18.3711 20.9631 18.5882 21.4249C17.4443 24.7554 16.2163 27.0353 15.9556 27.5042C11.3594 29.2347 11 30.9079 11 31.3821C11 32.2342 11.6069 32.743 12.6234 32.743C15.0932 32.743 17.347 28.5965 17.7197 27.8765C19.4738 27.1776 21.8216 26.7446 22.4184 26.6413C24.1304 28.2721 26.1104 28.7073 26.9326 28.7073C27.5512 28.7073 28.9999 28.7073 28.9999 27.2177C29 25.8345 27.2271 25.3438 25.7088 25.3438ZM25.5898 26.3216C26.9238 26.3216 27.2764 26.7628 27.2764 26.9961C27.2764 27.1424 27.2208 27.62 26.5058 27.62C25.8646 27.62 24.7575 27.2494 23.6683 26.4454C24.1225 26.3857 24.7947 26.3216 25.5898 26.3216ZM19.0508 16.2076C19.1724 16.2076 19.2525 16.2467 19.3185 16.3383C19.7022 16.8706 19.3928 18.6103 19.0163 19.9716C18.6528 18.8043 18.38 17.0133 18.7638 16.3831C18.8388 16.2602 18.9246 16.2076 19.0508 16.2076ZM18.4029 26.6275C18.8859 25.6517 19.4272 24.2297 19.722 23.4255C20.3121 24.4131 21.1057 25.3301 21.5647 25.8272C20.1356 26.1285 19.0543 26.4295 18.4029 26.6275ZM11.9594 31.5123C11.9276 31.4745 11.9229 31.395 11.9469 31.2994C11.9971 31.0993 12.3814 30.1072 15.1608 28.8639C14.7628 29.4907 14.1407 30.3864 13.4572 31.0556C12.9761 31.5059 12.6014 31.7343 12.3437 31.7343C12.2515 31.7343 12.1244 31.7092 11.9594 31.5123Z" fill="#D92D20"/>
</svg>
