<svg width="38" height="38" viewBox="0 0 38 38" fill="none" xmlns="http://www.w3.org/2000/svg">
<g filter="url(#filter0_dd_40000370_1745)">
<rect x="3.1" y="2.1" width="31.8" height="31.8" rx="7.9" fill="white"/>
<rect x="3.1" y="2.1" width="31.8" height="31.8" rx="7.9" fill="url(#paint0_linear_40000370_1745)"/>
<rect x="3.1" y="2.1" width="31.8" height="31.8" rx="7.9" stroke="#D0D5DD" stroke-width="0.2"/>
<path d="M27.9999 18H18.6196V27C24.907 27 27.4929 20.9578 27.9999 18Z" fill="url(#paint1_linear_40000370_1745)"/>
<path d="M10 18H18.6197V27C11.7239 27 10 20.8733 10 18Z" fill="url(#paint2_linear_40000370_1745)"/>
<path d="M28 8V18H18.6177C18.6177 11.307 24.8732 8.33803 28 8Z" fill="url(#paint3_linear_40000370_1745)"/>
</g>
<defs>
<filter id="filter0_dd_40000370_1745" x="0" y="0" width="38" height="38" filterUnits="userSpaceOnUse" color-interpolation-filters="sRGB">
<feFlood flood-opacity="0" result="BackgroundImageFix"/>
<feColorMatrix in="SourceAlpha" type="matrix" values="0 0 0 0 0 0 0 0 0 0 0 0 0 0 0 0 0 0 127 0" result="hardAlpha"/>
<feOffset dy="1"/>
<feGaussianBlur stdDeviation="1"/>
<feColorMatrix type="matrix" values="0 0 0 0 0.0627451 0 0 0 0 0.0941176 0 0 0 0 0.156863 0 0 0 0.06 0"/>
<feBlend mode="normal" in2="BackgroundImageFix" result="effect1_dropShadow_40000370_1745"/>
<feColorMatrix in="SourceAlpha" type="matrix" values="0 0 0 0 0 0 0 0 0 0 0 0 0 0 0 0 0 0 127 0" result="hardAlpha"/>
<feOffset dy="1"/>
<feGaussianBlur stdDeviation="1.5"/>
<feColorMatrix type="matrix" values="0 0 0 0 0.0627451 0 0 0 0 0.0941176 0 0 0 0 0.156863 0 0 0 0.1 0"/>
<feBlend mode="normal" in2="effect1_dropShadow_40000370_1745" result="effect2_dropShadow_40000370_1745"/>
<feBlend mode="normal" in="SourceGraphic" in2="effect2_dropShadow_40000370_1745" result="shape"/>
</filter>
<linearGradient id="paint0_linear_40000370_1745" x1="19" y1="2" x2="19" y2="34" gradientUnits="userSpaceOnUse">
<stop stop-color="white"/>
<stop offset="1" stop-color="#D0D5DD"/>
</linearGradient>
<linearGradient id="paint1_linear_40000370_1745" x1="28.9999" y1="19" x2="18.4999" y2="22" gradientUnits="userSpaceOnUse">
<stop stop-color="#6941C6"/>
<stop offset="1" stop-color="#331F60"/>
</linearGradient>
<linearGradient id="paint2_linear_40000370_1745" x1="14.3099" y1="18.1268" x2="14.3099" y2="27" gradientUnits="userSpaceOnUse">
<stop stop-color="#6941C6"/>
<stop offset="1" stop-color="#331F60"/>
</linearGradient>
<linearGradient id="paint3_linear_40000370_1745" x1="22" y1="17.5" x2="27.5" y2="8.5" gradientUnits="userSpaceOnUse">
<stop stop-color="#6941C6"/>
<stop offset="1" stop-color="#331F60"/>
</linearGradient>
</defs>
</svg>
